<svg xmlns="http://www.w3.org/2000/svg" width="32" height="32" enable-background="new 0 0 32 32" viewBox="0 0 32 32"><path d="M12.945 9.962c.143 0 .285-.034.417-.101l6.495-3.332c.32-.164.517-.5.505-.863s-.23-.685-.56-.828l-6.387-2.764c-.282-.122-.607-.095-.865.075-.259.168-.416.456-.422.767l-.035 1.986c-4.971 1.68-8.268 6.37-8.087 11.651.144 4.194 2.542 8.049 6.26 10.059.139.075.288.11.435.11.33 0 .649-.179.815-.493.24-.455.071-1.02-.379-1.263-3.139-1.698-5.164-4.946-5.286-8.478-.145-4.224 2.36-8 6.207-9.584l-.037 2.107c-.005.327.159.634.434.808C12.604 9.915 12.774 9.962 12.945 9.962zM17.26 5.769l-3.364 1.726.056-3.158L17.26 5.769zM27.993 15.744c-.134-3.894-2.184-7.482-5.482-9.599-.434-.277-1.002-.148-1.275.288-.272.435-.145 1.012.285 1.288 2.785 1.787 4.516 4.81 4.628 8.087.135 3.918-2.026 7.486-5.472 9.246l-.054-2.106c-.01-.327-.187-.625-.468-.787-.281-.161-.626-.163-.907-.002l-6.347 3.602c-.313.178-.495.522-.469.884.027.361.258.674.594.803l6.502 2.492C19.635 29.98 19.745 30 19.855 30c.188 0 .376-.059.534-.172.251-.18.396-.475.389-.785l-.05-1.958C25.265 25.162 28.163 20.688 27.993 15.744zM15.528 26.41l3.288-1.866.081 3.157L15.528 26.41z"/></svg>